<svg width="27.000000" height="23.000000" viewBox="0 0 27 23" fill="none" xmlns="http://www.w3.org/2000/svg" xmlns:xlink="http://www.w3.org/1999/xlink">
	<desc>
			Created with Pixso.
	</desc>
	<defs/>
	<path id="Vector" d="M27 1.24L27 21.75C27 22.44 26.43 23 25.74 23L9.38 23C8.69 23 8.16 22.44 8.16 21.75L8.16 16.06C8.16 15.38 8.72 14.82 9.41 14.82C10.1 14.82 10.67 15.38 10.67 16.06L10.67 20.51L24.48 20.51L24.48 2.48L10.67 2.48L10.67 6.93C10.67 7.61 10.1 8.17 9.41 8.17C8.72 8.17 8.16 7.61 8.16 6.93L8.16 1.24C8.16 0.55 8.69 0 9.38 0L25.74 0C26.43 0 27 0.55 27 1.24ZM13.65 15.5C13.15 16 13.18 16.78 13.65 17.28C13.9 17.52 14.22 17.65 14.53 17.65C14.85 17.65 15.19 17.52 15.41 17.28L20.34 12.37C20.81 11.87 20.81 11.09 20.34 10.62L15.44 5.65C14.94 5.15 14.15 5.15 13.65 5.65C13.15 6.15 13.15 6.93 13.65 7.42L16.45 10.22L1.25 10.25C0.56 10.25 0 10.81 0 11.5C0 12.18 0.56 12.74 1.25 12.74L16.45 12.71L13.65 15.5Z" fill="#F0400F" fill-opacity="1.000000" fill-rule="nonzero"/>
</svg>
