<svg width="40.000000" height="40.000000" viewBox="0 0 40 40" fill="none" xmlns="http://www.w3.org/2000/svg" xmlns:xlink="http://www.w3.org/1999/xlink">
	<desc>
			Created with Pixso.
	</desc>
	<defs/>
	<path id="Vector" d="M19.14 -0.84C8.1 -0.84 -0.84 8.12 -0.84 19.16C-0.84 30.2 8.1 39.16 19.14 39.16C30.2 39.16 39.16 30.2 39.16 19.16C39.16 8.12 30.2 -0.84 19.14 -0.84ZM33 11.16L27.1 11.16C26.46 8.66 25.54 6.26 24.34 4.04C28.02 5.3 31.08 7.86 33 11.16ZM19.16 3.24C20.82 5.64 22.12 8.3 22.98 11.16L15.34 11.16C16.2 8.3 17.5 5.64 19.16 3.24ZM3.68 23.16C3.36 21.88 3.16 20.54 3.16 19.16C3.16 17.78 3.36 16.44 3.68 15.16L10.44 15.16C10.28 16.48 10.16 17.8 10.16 19.16C10.16 20.52 10.28 21.84 10.44 23.16L3.68 23.16ZM5.32 27.16L11.22 27.16C11.86 29.66 12.78 32.06 13.98 34.28C10.3 33.02 7.24 30.48 5.32 27.16ZM11.22 11.16L5.32 11.16C7.24 7.84 10.3 5.3 13.98 4.04C12.78 6.26 11.86 8.66 11.22 11.16ZM19.16 35.08C17.5 32.68 16.2 30.02 15.34 27.16L22.98 27.16C22.12 30.02 20.82 32.68 19.16 35.08ZM23.84 23.16L14.48 23.16C14.3 21.84 14.16 20.52 14.16 19.16C14.16 17.8 14.3 16.46 14.48 15.16L23.84 15.16C24.02 16.46 24.16 17.8 24.16 19.16C24.16 20.52 24.02 21.84 23.84 23.16ZM24.34 34.28C25.54 32.06 26.46 29.66 27.1 27.16L33 27.16C31.08 30.46 28.02 33.02 24.34 34.28ZM27.88 23.16C28.04 21.84 28.16 20.52 28.16 19.16C28.16 17.8 28.04 16.48 27.88 15.16L34.64 15.16C34.96 16.44 35.16 17.78 35.16 19.16C35.16 20.54 34.96 21.88 34.64 23.16L27.88 23.16Z" fill="#F0400F" fill-opacity="1.000000" fill-rule="nonzero"/>
</svg>
